<svg xmlns="http://www.w3.org/2000/svg" viewBox="0 0 512 512">
  <defs>
    <linearGradient id="bg" x1="0" y1="0" x2="1" y2="1"><stop offset="0" stop-color="#2a0f5c"/><stop offset=".55" stop-color="#5b1a8a"/><stop offset="1" stop-color="#c2185b"/></linearGradient>
    <linearGradient id="star" x1="0" y1="0" x2="1" y2="1"><stop offset="0" stop-color="#ffe14d"/><stop offset=".35" stop-color="#ff9a3d"/><stop offset=".7" stop-color="#ff3d8b"/><stop offset="1" stop-color="#a24dff"/></linearGradient>
    <linearGradient id="ring" x1="0" y1="1" x2="1" y2="0"><stop offset="0" stop-color="#2de2e6"/><stop offset=".5" stop-color="#4d7cff"/><stop offset="1" stop-color="#b44dff"/></linearGradient>
    <radialGradient id="glow" cx=".5" cy=".5" r=".5"><stop offset="0" stop-color="#ff9a3d" stop-opacity=".55"/><stop offset="1" stop-color="#ff9a3d" stop-opacity="0"/></radialGradient>
    <radialGradient id="lens" cx=".4" cy=".35" r=".8"><stop offset="0" stop-color="#3a2a7a"/><stop offset="1" stop-color="#120a2e"/></radialGradient>
  </defs>
  <rect width="512" height="512" rx="116" fill="url(#bg)"/>
  <circle cx="256" cy="262" r="210" fill="url(#glow)"/>
  <ellipse cx="256" cy="262" rx="212" ry="74" transform="rotate(-24 256 262)" fill="none" stroke="url(#ring)" stroke-width="16" stroke-linecap="round" stroke-dasharray="560 250" stroke-dashoffset="150"/>
  <path d="M256 58l54 122 133 14-99 90 28 131-116-67-116 67 28-131-99-90 133-14z" fill="url(#star)" stroke="#fff" stroke-opacity=".28" stroke-width="5" stroke-linejoin="round"/>
  <circle cx="256" cy="262" r="74" fill="url(#lens)" stroke="#fff" stroke-width="10"/>
  <path d="M236 226l58 36-58 36z" fill="#fff" stroke="#fff" stroke-width="10" stroke-linejoin="round"/>
  <circle cx="404" cy="112" r="15" fill="#2de2e6"/>
  <circle cx="98" cy="398" r="10" fill="#ffe14d"/>
  <circle cx="420" cy="388" r="7" fill="#fff"/>
</svg>
